<svg xmlns="http://www.w3.org/2000/svg" viewBox="0 0 440 96" width="440" height="96" role="img"><defs><marker id="a" viewBox="0 0 6 6" refX="6" refY="3" markerWidth="6" markerHeight="6" orient="auto"><path d="M0 0L6 3L0 6" fill="none" stroke="#204E39" stroke-width="1"/></marker><marker id="b" viewBox="0 0 6 6" refX="0" refY="3" markerWidth="6" markerHeight="6" orient="auto"><path d="M6 0L0 3L6 6" fill="none" stroke="#204E39" stroke-width="1"/></marker></defs><rect x="14" y="10" width="86" height="20" fill="none" stroke="#D2DBD6"/><text x="57" y="24" text-anchor="middle" font-family="JetBrains Mono, ui-monospace, Menlo, monospace" font-size="9" fill="#6B6358">Claude</text><line x1="100" y1="20" x2="130" y2="48" stroke="#D2DBD6"/><rect x="14" y="37" width="86" height="20" fill="none" stroke="#D2DBD6"/><text x="57" y="51" text-anchor="middle" font-family="JetBrains Mono, ui-monospace, Menlo, monospace" font-size="9" fill="#6B6358">Claude Code</text><line x1="100" y1="47" x2="130" y2="48" stroke="#D2DBD6"/><rect x="14" y="64" width="86" height="20" fill="none" stroke="#D2DBD6"/><text x="57" y="78" text-anchor="middle" font-family="JetBrains Mono, ui-monospace, Menlo, monospace" font-size="9" fill="#6B6358">ChatGPT</text><line x1="100" y1="74" x2="130" y2="48" stroke="#D2DBD6"/><text x="57" y="94" text-anchor="middle" font-family="JetBrains Mono, ui-monospace, Menlo, monospace" font-size="7" fill="#6B6358" letter-spacing="1">TOOLS</text><line x1="130" y1="48" x2="172" y2="48" stroke="#204E39" stroke-width="1" marker-end="url(#a)" marker-start="url(#b)"/><rect x="172" y="22" width="130" height="52" fill="#FFFFFF" stroke="#204E39" stroke-width="1" /><text x="237.0" y="48.0" text-anchor="middle" font-family="JetBrains Mono, ui-monospace, Menlo, monospace" font-size="10" fill="#141210">the brain</text><text x="237.0" y="61.0" text-anchor="middle" font-family="JetBrains Mono, ui-monospace, Menlo, monospace" font-size="8" fill="#6B6358">markdown · MCP server</text><line x1="302" y1="48" x2="344" y2="48" stroke="#204E39" stroke-width="1" marker-end="url(#a)" marker-start="url(#b)"/><rect x="344" y="30" width="82" height="36" fill="none" stroke="#204E39"/><text x="385" y="52" text-anchor="middle" font-family="JetBrains Mono, ui-monospace, Menlo, monospace" font-size="10" fill="#141210">me</text><text x="237" y="90" text-anchor="middle" font-family="JetBrains Mono, ui-monospace, Menlo, monospace" font-size="7" fill="#6B6358" letter-spacing="1">ONE SOURCE OF TRUTH · READ AND WRITTEN BY BOTH</text></svg>