<svg xmlns="http://www.w3.org/2000/svg" viewBox="0 0 440 96" width="440" height="96" role="img"><line x1="44" y1="70" x2="424" y2="70" stroke="#D2DBD6"/><line x1="44" y1="52.9" x2="424" y2="52.9" stroke="#D2DBD6" stroke-dasharray="2 3"/><text x="38" y="55.9" text-anchor="end" font-family="JetBrains Mono, ui-monospace, Menlo, monospace" font-size="8" fill="#6B6358">25t</text><line x1="44" y1="35.8" x2="424" y2="35.8" stroke="#D2DBD6" stroke-dasharray="2 3"/><text x="38" y="38.8" text-anchor="end" font-family="JetBrains Mono, ui-monospace, Menlo, monospace" font-size="8" fill="#6B6358">50t</text><line x1="44" y1="18.7" x2="424" y2="18.7" stroke="#D2DBD6" stroke-dasharray="2 3"/><text x="38" y="21.7" text-anchor="end" font-family="JetBrains Mono, ui-monospace, Menlo, monospace" font-size="8" fill="#6B6358">75t</text><rect x="48.0" y="24.7" width="23.7" height="45.3" fill="#204E39"/><rect x="79.7" y="10.0" width="23.7" height="60.0" fill="#204E39"/><rect x="111.3" y="19.9" width="23.7" height="50.1" fill="#204E39"/><rect x="143.0" y="32.4" width="23.7" height="37.6" fill="#204E39"/><rect x="174.7" y="12.7" width="23.7" height="57.3" fill="#204E39"/><rect x="206.3" y="27.0" width="23.7" height="43.0" fill="#204E39"/><rect x="238.0" y="38.7" width="23.7" height="31.3" fill="#204E39"/><rect x="269.7" y="25.5" width="23.7" height="44.5" fill="#204E39"/><rect x="301.3" y="33.9" width="23.7" height="36.1" fill="#204E39"/><rect x="333.0" y="30.6" width="23.7" height="39.4" fill="#204E39"/><rect x="364.7" y="55.2" width="23.7" height="14.8" fill="#9DB5A8"/><rect x="396.3" y="46.7" width="23.7" height="23.3" fill="#9DB5A8"/><text x="44" y="86" font-family="JetBrains Mono, ui-monospace, Menlo, monospace" font-size="8" fill="#6B6358">4 May</text><text x="424" y="86" text-anchor="end" font-family="JetBrains Mono, ui-monospace, Menlo, monospace" font-size="8" fill="#6B6358">26 Jul</text><text x="234.0" y="86" text-anchor="middle" font-family="JetBrains Mono, ui-monospace, Menlo, monospace" font-size="7" fill="#6B6358" letter-spacing="1">WEEKLY TONNAGE · 12 WEEKS · LIGHTER = UNDER 5 SESSIONS</text></svg>